<svg xmlns="http://www.w3.org/2000/svg" xmlns:xlink="http://www.w3.org/1999/xlink" width="500" zoomAndPan="magnify" viewBox="0 0 375 149.999998" height="200" preserveAspectRatio="xMidYMid meet" version="1.0"><defs><g/><clipPath id="8981d687ca"><path d="M 1 15 L 175 15 L 175 134.25 L 1 134.25 Z M 1 15 " clip-rule="nonzero"/></clipPath></defs><g fill="#ffffff" fill-opacity="1"><g transform="translate(200.990561, 103.039524)"><g><path d="M 52.375 -18.699219 L 52.375 -39.613281 C 52.375 -53.617188 39.082031 -59.644531 28.535156 -59.644531 C 17.992188 -59.644531 4.875 -53.617188 4.875 -39.613281 L 4.875 -18.699219 C 4.875 -4.695312 17.992188 1.328125 28.535156 1.328125 C 39.082031 1.328125 52.375 -4.695312 52.375 -18.699219 Z M 38.460938 -38.375 L 38.460938 -19.941406 C 38.460938 -14.269531 34.386719 -10.988281 28.535156 -10.988281 C 22.777344 -10.988281 18.699219 -14.269531 18.699219 -19.941406 L 18.699219 -38.375 C 18.699219 -44.046875 22.777344 -47.324219 28.535156 -47.324219 C 34.386719 -47.324219 38.460938 -44.046875 38.460938 -38.375 Z M 38.460938 -38.375 "/></g></g></g><g fill="#ffffff" fill-opacity="1"><g transform="translate(258.147927, 103.039524)"><g><path d="M 54.324219 -2.835938 L 41.828125 -21.003906 C 47.324219 -22.863281 54.148438 -29.332031 54.148438 -38.640625 C 54.148438 -44.3125 52.289062 -49.363281 49.007812 -52.554688 C 45.285156 -56.273438 41.03125 -58.226562 31.371094 -58.226562 L 9.039062 -58.226562 C 7 -58.226562 6.558594 -57.25 6.558594 -55.65625 L 6.558594 -2.570312 C 6.558594 -0.53125 7.445312 0 9.039062 0 L 17.8125 0 C 19.410156 0 20.382812 -0.53125 20.382812 -2.570312 L 20.382812 -45.816406 L 32.167969 -45.816406 C 36.777344 -45.816406 40.324219 -42.894531 40.324219 -38.285156 C 40.324219 -34.121094 36.246094 -31.105469 31.902344 -31.105469 L 30.132812 -31.105469 C 28.09375 -31.105469 27.5625 -30.132812 27.5625 -28.535156 L 27.5625 -21.445312 C 27.5625 -18.964844 27.738281 -17.992188 28.535156 -16.925781 L 38.109375 -2.660156 C 39.347656 -0.796875 40.410156 0 42.539062 0 L 52.996094 0 C 54.679688 0 55.121094 -1.59375 54.324219 -2.835938 Z M 54.324219 -2.835938 "/></g></g></g><g fill="#ffffff" fill-opacity="1"><g transform="translate(317.16623, 103.039524)"><g><path d="M 56.71875 -2.480469 L 37.132812 -55.566406 C 36.335938 -57.425781 35.449219 -58.3125 33.5 -58.3125 L 24.992188 -58.3125 C 23.042969 -58.3125 22.066406 -57.425781 21.359375 -55.566406 L 1.683594 -2.480469 C 1.242188 -1.417969 1.242188 0 3.191406 0 L 12.496094 0 C 14.445312 0 15.15625 -0.53125 15.863281 -2.660156 L 18.34375 -9.660156 L 40.058594 -9.660156 L 42.539062 -2.660156 C 43.246094 -0.53125 43.957031 0 45.90625 0 L 55.210938 0 C 57.160156 0 57.160156 -1.417969 56.71875 -2.480469 Z M 29.246094 -41.652344 L 35.890625 -22.066406 L 22.597656 -22.066406 Z M 29.246094 -41.652344 "/></g></g></g><g clip-path="url(#8981d687ca)"><path fill="#ffffff" d="M 153.285156 128.894531 L 22.214844 128.894531 C 14.425781 128.894531 7.957031 123.242188 6.683594 115.824219 L 168.800781 115.824219 C 167.554688 123.242188 161.074219 128.894531 153.285156 128.894531 Z M 16.625 23.582031 C 16.625 21.695312 18.097656 20.210938 19.988281 20.210938 L 155.480469 20.210938 C 157.371094 20.210938 158.863281 21.695312 158.863281 23.582031 L 158.863281 110.554688 L 16.625 110.554688 Z M 171.644531 110.585938 L 164.128906 110.585938 L 164.128906 23.582031 C 164.128906 18.847656 160.273438 14.984375 155.496094 14.984375 L 19.988281 14.984375 C 15.242188 14.984375 11.371094 18.847656 11.371094 23.582031 L 11.371094 110.554688 L 3.855469 110.554688 C 2.398438 110.585938 1.230469 111.75 1.230469 113.207031 C 1.230469 124.742188 10.648438 134.136719 22.214844 134.136719 L 153.285156 134.136719 C 164.851562 134.136719 174.269531 124.742188 174.269531 113.207031 C 174.269531 111.75 173.117188 110.585938 171.644531 110.585938 " fill-opacity="1" fill-rule="nonzero"/></g><path fill="#ffffff" d="M 143.820312 98.910156 L 31.679688 98.910156 L 31.679688 32.023438 L 143.804688 32.023438 L 143.804688 98.910156 Z M 146.449219 26.796875 L 29.050781 26.796875 C 27.589844 26.796875 26.425781 27.964844 26.425781 29.417969 L 26.425781 101.527344 C 26.425781 102.984375 27.589844 104.148438 29.050781 104.148438 L 146.417969 104.148438 C 147.878906 104.148438 149.046875 102.984375 149.046875 101.527344 L 149.046875 29.417969 C 149.074219 27.964844 147.878906 26.796875 146.449219 26.796875 " fill-opacity="1" fill-rule="nonzero"/><path fill="#ffffff" d="M 80.359375 86.238281 C 80.667969 86.34375 80.945312 86.390625 81.238281 86.390625 C 82.3125 86.390625 83.308594 85.714844 83.695312 84.644531 L 96.582031 48.019531 C 97.074219 46.640625 96.335938 45.15625 95 44.679688 C 93.617188 44.191406 92.128906 44.925781 91.636719 46.273438 L 78.746094 82.894531 C 78.285156 84.261719 79.023438 85.746094 80.359375 86.238281 Z M 121.332031 66.011719 L 103.789062 79.878906 C 102.652344 80.765625 102.453125 82.40625 103.359375 83.539062 C 103.863281 84.183594 104.648438 84.535156 105.402344 84.535156 C 105.96875 84.535156 106.539062 84.351562 107.03125 83.96875 L 127.152344 68.078125 C 127.769531 67.605469 128.152344 66.835938 128.152344 66.054688 C 128.152344 65.273438 127.785156 64.523438 127.167969 64.019531 L 106.214844 46.964844 C 105.078125 46.058594 103.433594 46.214844 102.542969 47.347656 C 101.621094 48.480469 101.792969 50.121094 102.914062 51.007812 Z M 68.46875 83.96875 C 68.960938 84.351562 69.53125 84.535156 70.097656 84.535156 C 70.882812 84.535156 71.636719 84.183594 72.140625 83.539062 C 73.046875 82.40625 72.847656 80.765625 71.710938 79.878906 L 54.167969 66.011719 L 72.585938 51.007812 C 73.707031 50.105469 73.878906 48.449219 72.957031 47.347656 C 72.050781 46.214844 70.390625 46.058594 69.285156 46.964844 L 48.332031 64.019531 C 47.714844 64.523438 47.347656 65.246094 47.347656 66.054688 C 47.347656 66.835938 47.730469 67.605469 48.363281 68.078125 L 68.46875 83.96875 " fill-opacity="1" fill-rule="nonzero"/></svg>